/* XPM */
static char *mekarcade_x32[] = {
/* columns rows colors chars-per-pixel */
"32 32 233 2 ",
"   c #1D2334",
".  c #2A2F33",
"X  c #2C3135",
"o  c #2B323D",
"O  c #303336",
"+  c #31353B",
"@  c #36393D",
"#  c #3B3D3E",
"$  c #453E3D",
"%  c #49403E",
"&  c #4E4A3E",
"*  c #353A43",
"=  c #3A3E44",
"-  c #353C49",
";  c #393F4A",
":  c #3D4145",
">  c #3D424B",
",  c #3D4351",
"<  c #434644",
"1  c #464B43",
"2  c #4A4B43",
"3  c #42454C",
"4  c #45484E",
"5  c #4B4C4E",
"6  c #544743",
"7  c #534C45",
"8  c #5A4D45",
"9  c #514F49",
"0  c #4C5044",
"q  c #4F504B",
"w  c #525244",
"e  c #5B5146",
"r  c #54534C",
"t  c #5C544A",
"y  c #5B5A4D",
"u  c #424751",
"i  c #454A53",
"p  c #4A4E54",
"a  c #494F59",
"s  c #4D5155",
"d  c #42525E",
"f  c #4E525A",
"g  c #525354",
"h  c #5B5654",
"j  c #555955",
"k  c #5C5B55",
"l  c #52565C",
"z  c #56585C",
"x  c #5B5C5B",
"c  c #614F42",
"v  c #635344",
"b  c #695645",
"n  c #635A44",
"m  c #6C5A46",
"M  c #635549",
"N  c #645C4D",
"B  c #6C5D4C",
"V  c #715C46",
"C  c #715E49",
"Z  c #635D53",
"A  c #635F59",
"S  c #66604E",
"D  c #6B634C",
"F  c #74624B",
"G  c #7A654B",
"H  c #646255",
"J  c #6B6553",
"K  c #6B6A55",
"L  c #62625A",
"P  c #6A6559",
"I  c #6E6C5A",
"U  c #746551",
"Y  c #726B56",
"T  c #7B6B53",
"R  c #746D59",
"E  c #7A6D58",
"W  c #7D7353",
"Q  c #75715B",
"!  c #7B735C",
"~  c #405362",
"^  c #475F69",
"/  c #525661",
"(  c #555A63",
")  c #595C61",
"_  c #565C68",
"`  c #626567",
"'  c #666965",
"]  c #6A6964",
"[  c #646768",
"{  c #716E61",
"}  c #7B6E60",
"|  c #767462",
" . c #7A7462",
".. c #7D7C66",
"X. c #757B68",
"o. c #7B7B69",
"O. c #666B70",
"+. c #7C7F79",
"@. c #817456",
"#. c #867A56",
"$. c #8C7854",
"%. c #83735E",
"&. c #83795B",
"*. c #867260",
"=. c #897562",
"-. c #877D61",
";. c #897D65",
":. c #847C68",
">. c #8F8459",
",. c #9A8E5F",
"<. c #A38D5F",
"1. c #868166",
"2. c #8E8162",
"3. c #83846B",
"4. c #8A836A",
"5. c #938462",
"6. c #9C8263",
"7. c #948A67",
"8. c #9C8A63",
"9. c #92866A",
"0. c #97886B",
"q. c #9E9765",
"w. c #858672",
"e. c #8C8C73",
"r. c #818178",
"t. c #928C72",
"y. c #939377",
"u. c #9A9071",
"i. c #9E9C7C",
"p. c #A28564",
"a. c #A48E63",
"s. c #A98966",
"d. c #AF9566",
"f. c #A89B66",
"g. c #A49068",
"h. c #AC9C6A",
"j. c #B29767",
"k. c #B59968",
"l. c #B89B69",
"z. c #AB9970",
"x. c #B29D75",
"c. c #BFAC6E",
"v. c #AEA775",
"b. c #AFA079",
"n. c #B9A474",
"m. c #B7A77B",
"M. c #BFB173",
"N. c #C3AD6F",
"B. c #C5AE72",
"V. c #C7B071",
"C. c #C9B173",
"Z. c #CABA77",
"A. c #CEB37E",
"S. c #CEBE79",
"D. c #DBBB7B",
"F. c #6F8280",
"G. c #979582",
"H. c #9A9981",
"J. c #9DA396",
"K. c #ADA983",
"L. c #B4AD8D",
"P. c #B2B29A",
"I. c #ACB3A5",
"U. c #ABB4A8",
"Y. c #B5BAA6",
"T. c #BFBDA4",
"R. c #B5BDAD",
"E. c #B5BEB1",
"W. c #C5B787",
"Q. c #CEB582",
"!. c #C0B488",
"~. c #CEBB8A",
"^. c #D1B681",
"/. c #D2B984",
"(. c #D2BD8B",
"). c #C8BF99",
"_. c #D1BF90",
"`. c #B5C0AE",
"'. c #B6C1B7",
"]. c #BFC7B6",
"[. c #BEC8B6",
"{. c #BDC9BC",
"}. c #CDC281",
"|. c #CCC68D",
" X c #CCC98F",
".X c #DEC087",
"XX c #D5C985",
"oX c #D4C48C",
"OX c #DBC28A",
"+X c #D4CB8C",
"@X c #CFC293",
"#X c #CDC995",
"$X c #CCC39C",
"%X c #D1C292",
"&X c #D3CB95",
"*X c #DBCD96",
"=X c #D1C498",
"-X c #D5CC9A",
";X c #DCD495",
":X c #DCD898",
">X c #E0C186",
",X c #FFDD86",
"<X c #F4D989",
"1X c #E3CF95",
"2X c #E6D194",
"3X c #E8D397",
"4X c #EBD997",
"5X c #E5D29C",
"6X c #EAD398",
"7X c #EFDB9C",
"8X c #F4DB97",
"9X c #F9DD99",
"0X c #FFE39B",
"qX c #C2C3A7",
"wX c #CAC6A4",
"eX c #CDC8A4",
"rX c #C4C5AA",
"tX c #C4C8AF",
"yX c #CBCAAB",
"uX c #D2CDA7",
"iX c #C2C7B1",
"pX c #C3CAB4",
"aX c #CDCFB1",
"sX c #C3CDBC",
"dX c #C5D0BF",
"fX c #CCD5BE",
"gX c #D8DBBC",
"hX c #BECCC2",
"jX c #C2CEC2",
"kX c #C5D0C2",
"lX c #CAD4C0",
"zX c #CEDAC7",
"xX c #DDE2C0",
/* pixels */
"kXkXkXjXjXjXjXjXjXjXjXjXhXhX{.hX{.hX{.{.].{.{.].pXpXrXrXqXrXqXqX",
"kXkXkXjXjXjXjXkXkXkXjXpXE.sXsXkXsXsX{.{.sXsXpXiXtXrXwXwXwX).).).",
"kXkXkXkXkXjXjX'.E.Y.pXF.^ E.Y.U.U.].pXpXpXtXtXyXrXrXeX=X)._.~.~.",
"lXlXlXlXlXzXpX` a l a d ~ p p f i J.gXaXaXyXyXyXeXeX=X_.(.~._.~.",
"fXzXfXsXpXE.G.Z i 3 ; a / > > p , [ P.P.T.wXuXeX=X=X%X(.(././.Q.",
"fXpXO.z a = @ u 3 3 u a a u 3 3 u * + > a ( L.-X=X%X%X_.(.(.~.~.",
"xXY.* @ # = : > > > > 3 3 > > = > : : = = o t.5X%X%X(.(.(./.~.W.",
"r.r.> > 4 3 u : i i = = = * p i = u 3 4 3 < x o.(.(.(.^.^.A.Q.Q.",
"l i u i 3 3 4 > s p > ; ; ; p f : 4 u > i u , : N..X^./.^.^.A.A.",
"z j u - ; - * < p p = * + * p i = * - ; ; 4 s , x.>X/./.^.^.Q.Q.",
", { b.H I P P # * ; @ @ O O * o @ P P P L 0.5 ; u.(./.^./.~././.",
"p m.0X9X9X8X0X9.u p + @ * * 3.t.W.6X1X1X1XoX7.x a !.1X1X&X_.%X).",
"Q 8X2X3X3X7X~.H l f 5 h p g o.| t.&X-X-X&X&X4X<XB.Z...X.K.-X#X#X",
"x w.e.y.y.i.4.s p u a s 5 p u = , G.;X X&X&X+X,Xc.@.@   ..:X|. X",
"L 3.X.o.X.3.2.L 5 u u 3 > ; ; p > w.;XoX+X|.XX<.5.$.e @  .+X+X+X",
"| ........3.7.S * p k 5 < 5 5 - : v.XX}.}.}.}.#.B $.n & n n w q.",
"| | | | 1.g.P 4 > 4. .q t y q  .h.S.Z.Z.Z.Z.Z.B.f.>.U w W #.2 ,.",
"Q I Q ] x L : - H | 5 q 4 Q 7.h.c.c.B.B.N.B.N.N.V.V.V.V.V.B.B.B.",
"K K ! :.i > 4 H R Q I k s I ! R Q 2.2.h.l.l.k.j.j.j.p.a.j.d.d.d.",
"K K R :.a j I Q I I k x f L ! Q R Y Q ! ;.p.p.p.6.s.S E p.Y 6.6.",
"K K K I s z L S J I k x l L R K Y Y Y Y W &.=.*.%.=.y K %.Z =.%.",
"H K K ! g p ' z.L x x x l x R R Y Y Y Q R R R E R ! y H J N ! K ",
"k H y L a , n.D.f > > 4 s f H U J J J J K Y Y E U E y 1 r R E J ",
"y k r r P ;.z.8.j > : : p f x Z S y S N N D J J J J w 1 J S S y ",
"r r r g y &.2.-.3 @ O ; A { l ( j t t L x j t Z Z N 0 0 M r w t ",
"g r r q q 5 J @.< . . : Z } x f / Z y r q q r t t t 0 1 t t t e ",
"w t t t 8 M e t h # : a g P g p s 5 8 r t 8 8 7 6 8 9 < 8 8 N Z ",
"U D B D  .) x [ O.A *./ / l # X 9 N B m t 6 6 6 6 8 0 < M U -.} ",
"B v Z } ` / ( ) p 3 %.[ _ f r 7 r U b v e 6 8 c e e e 7 8 W ! Z ",
"8 v R z h Z C N m B M U ) l h U x x m m C F C C V F F F B B 3 * ",
"m V N B C F F G F @.F v p > % M F A A B C U U T @.U D V F F N t ",
"@.G V B b b c b b v V c $ $ $ 8 M M h 8 8 v B B C F F F G F F C "
};
