/* XPM */
static char *redeclipse_x32[] = {
/* columns rows colors chars-per-pixel */
"32 32 118 2 ",
"   c black",
".  c #010100000000",
"X  c #020200000000",
"o  c #030300000000",
"O  c #040400000000",
"+  c #050500000000",
"@  c #060600000000",
"#  c #070700000000",
"$  c #070702020000",
"%  c #080800000000",
"&  c #090900000000",
"*  c #0A0A00000000",
"=  c #0B0B00000000",
"-  c #0C0C00000000",
";  c #0D0D00000000",
":  c #0C0C01010000",
">  c #0E0E00000000",
",  c #0F0F00000000",
"<  c #0D0D02020101",
"1  c #101000000000",
"2  c #111100000000",
"3  c #121200000000",
"4  c #141400000000",
"5  c #151500000000",
"6  c #171700000000",
"7  c #121205050202",
"8  c #181800000000",
"9  c #1B1B00000000",
"0  c #1C1C00000000",
"q  c #1D1D00000000",
"w  c #1E1E00000000",
"e  c #1F1F00000000",
"r  c #191905050303",
"t  c #1D1D0B0B0404",
"y  c #202000000000",
"u  c #222200000000",
"i  c #252500000000",
"p  c #262600000000",
"a  c #252502020202",
"s  c #242404040404",
"d  c #282800000000",
"f  c #2B2B00000000",
"g  c #2E2E07070101",
"h  c #2B2B0D0D0404",
"j  c #333300000000",
"k  c #333301010101",
"l  c #373700000000",
"z  c #373701010101",
"x  c #313104040101",
"c  c #3E3E00000000",
"v  c #414100000000",
"b  c #404003030202",
"n  c #444400000000",
"m  c #474700000000",
"M  c #484803030202",
"N  c #737309090202",
"B  c #767608080202",
"V  c #707018181717",
"C  c #73731A1A1919",
"Z  c #7E7E1B1B1B1B",
"A  c #838307070505",
"S  c #8C8C01010202",
"D  c #8D8D08080202",
"F  c #939305050202",
"G  c #A3A308080909",
"H  c #B5B510100F0F",
"J  c #87872C2C2C2C",
"K  c #92923E3E3E3E",
"L  c #DFDF07070404",
"P  c #DFDF0A0A0303",
"I  c #E4E407070404",
"U  c #FDFD00000000",
"Y  c #FEFE00000000",
"T  c red",
"R  c #FEFE01010101",
"E  c #FEFE02020202",
"W  c #FEFE28282828",
"Q  c #FDFD32323232",
"!  c #FEFE39393939",
"~  c #FFFF39393939",
"^  c #929244444343",
"/  c #989848484848",
"(  c #989852525353",
")  c #A7A75E5E5F5F",
"_  c #B5B56A6A6A6A",
"`  c #FEFE41414141",
"'  c #FEFE56565656",
"]  c #FEFE57575757",
"[  c #FEFE69696969",
"{  c #FFFF76767676",
"}  c #FEFE78787878",
"|  c #CACA8D8D8D8D",
" . c #CECE93939393",
".. c #D2D299999999",
"X. c #FEFE83838383",
"o. c #FEFE9B9B9B9B",
"O. c #FEFEA0A0A0A0",
"+. c #FEFEACACACAC",
"@. c #E9E9BEBEBEBE",
"#. c #FEFEB6B6B6B6",
"$. c #FEFEBFBFBFBF",
"%. c #FEFEC5C5C5C5",
"&. c #F0F0CFCFCFCF",
"*. c #F7F7DFDFDFDF",
"=. c #FFFFE1E1E1E1",
"-. c #FEFEE4E4E4E4",
";. c #FEFEE7E7E7E7",
":. c #FEFEE9E9E9E9",
">. c #FBFBECECECEC",
",. c #FEFEFAFAFAFA",
"<. c #FEFEFDFDFDFD",
"1. c #FDFDFEFEFEFE",
"2. c #FDFDFFFFFFFF",
"3. c #FEFEFEFEFEFE",
"4. c #FFFFFEFEFEFE",
"5. c #FEFEFFFFFFFF",
"6. c gray100",
"7. c None",
/* pixels */
"7.7.7.7.7.7.7.7.7.7.7.7.7.7.7.7.7.7.7.7.7.7.7.7.7.7.7.7.7.7.7.7.",
"7.7.7.7.7.7.7.7.7.7.7.7.7.7.7.7.7.7.7.7.7.7.7.7.7.7.7.7.7.7.7.7.",
"7.7.7.7.7.7.7.7.7.7.7.7.7.7.7.7.7.7.7.7.7.7.7.7.7.7.7.7.7.7.7.7.",
"7.7.7.7.7.7.7.7.7.7.7.7.7.7.7.7.7.7.7.7.7.7.7.7.7.7.7.7.7.7.7.7.",
"7.7.7.7.7.7.7.7.7.7.7.7.7.7.7.7.7.7.7.7.7.7.7.7.7.7.7.7.7.7.7.7.",
"7.7.7.7.7.7.7.7.7.7.7.7.7.7.7.7.7.7.7.7.7.7.7.7.7.7.7.7.7.7.7.7.",
"7.7.7.7.7.7.7.7.7.7.7.7.X.O.o.} W 7.7.7.7.7.7.7.7.7.7.7.7.7.7.7.",
"7.7.7.7.7.7.7.7.7.Q %.4.4.4.2.4.4.%.! 7.7.7.7.7.7.7.7.7.7.7.7.7.",
"7.7.7.7.7.7.7.7.] 4.4.2.4.4.4.4.4.4.4.{ 7.7.7.7.7.7.7.7.7.7.7.7.",
"7.7.7.7.7.7.7.` 4.4.4.4.4.4.@._ J V C ^ H 7.7.7.7.7.7.7.7.7.7.7.",
"7.7.7.7.7.7.Y -.4.2.4.4.&.Z j i y y 9 9 w c A 7.7.7.7.7.7.7.7.7.",
"7.7.7.7.Y Y [ 4.4.4.4. .m d i w 6 3 3 > % 3 w M L 7.7.7.7.7.7.7.",
"7.7.7.Y Y Y #.4.2.4...z i w 6 > > > % % % > % 3 z I 7.7.7.7.7.7.",
"7.7.7.Y Y Y :.4.4.*.c d 9 6 > % % > % # # % % % % b 7.7.7.7.7.7.",
"7.7.7.7.Y Y ,.4.4.K i 9 > # # # # # % % # o o o o % F 7.7.7.7.7.",
"7.7.7.7.Y Y :.4.>.c w 6 % % % # % # # % o # o o o o x Y 7.7.7.7.",
"7.7.7.7.Y Y +.4.| d 9 > % # # # % # o o o o o o o o o L 7.7.7.7.",
"7.7.7.7.7.Y ] 4.) i 6 > # # % % % # o o o o o o o o o D 7.7.7.7.",
"7.7.7.7.7.Y E =./ w 9 % # # % # o o o o o o o o o o o N 7.7.7.7.",
"7.7.7.7.7.7.7.~ ( w 3 % # # % o o o o o o o o o o o o N 7.7.7.7.",
"7.7.7.7.7.7.7.7.G w > % % # # o o o o o o o o o o o o 7.7.7.7.7.",
"7.7.7.7.7.7.7.7.7.i 3 > % # o o o o o o o o o o o o % 7.7.7.7.7.",
"7.7.7.7.7.7.7.7.7.n > % % # o o o o o o o o o o o o g 7.7.7.7.7.",
"7.7.7.7.7.7.7.7.7.S 6 % # o o o o o o o o o o o o o 7.7.7.7.7.7.",
"7.7.7.7.7.7.7.7.7.7.z > # o o o o o o o o o o o o 7.7.7.7.7.7.7.",
"7.7.7.7.7.7.7.7.7.7.7.s # o o o o o o o o o o o h 7.7.7.7.7.7.7.",
"7.7.7.7.7.7.7.7.7.7.7.7.s % o o o o o o o o $ 7.7.7.7.7.7.7.7.7.",
"7.7.7.7.7.7.7.7.7.7.7.7.7.7.r > o o o o 7 t 7.7.7.7.7.7.7.7.7.7.",
"7.7.7.7.7.7.7.7.7.7.7.7.7.7.7.7.7.7.7.7.7.7.7.7.7.7.7.7.7.7.7.7.",
"7.7.7.7.7.7.7.7.7.7.7.7.7.7.7.7.7.7.7.7.7.7.7.7.7.7.7.7.7.7.7.7.",
"7.7.7.7.7.7.7.7.7.7.7.7.7.7.7.7.7.7.7.7.7.7.7.7.7.7.7.7.7.7.7.7.",
"7.7.7.7.7.7.7.7.7.7.7.7.7.7.7.7.7.7.7.7.7.7.7.7.7.7.7.7.7.7.7.7."
};
