# 3ds Max Wavefront OBJ Exporter v0.97b - (c)2007 guruware
# File Created: 02.07.2012 11:34:33

#
# object Hedra
#

v  2.2861 84.0452 -7.3052
v  -2.2861 84.0452 -7.3052
v  -1.9779 83.9746 7.9996
v  1.9779 83.9746 7.9996
v  -2.2861 2.0339 50.1198
v  2.2861 2.0339 50.1198
v  1.9779 16.4398 55.2879
v  -1.9779 16.4398 55.2879
v  44.6516 2.3725 -23.2586
v  42.3654 2.3908 -27.2182
v  48.9156 7.4516 -19.4533
v  46.9377 4.2269 -20.6102
v  -50.0587 11.1878 -20.0960
v  -50.0587 14.9331 -22.7186
v  -41.2224 7.5130 -32.7782
v  -41.2224 4.2726 -30.5093
v  10.6920 43.2244 -11.8403
v  7.8125 81.3211 -7.9885
v  11.0373 81.2953 -2.4030
v  15.6605 43.1847 -3.2346
v  -15.6605 43.1847 -3.2346
v  -11.0373 81.2953 -2.4030
v  -7.8125 81.3211 -7.9885
v  -10.6920 43.2244 -11.8403
v  4.9685 43.0992 15.2842
v  3.2248 81.2329 11.1285
v  -3.2248 81.2329 11.1285
v  -4.9685 43.0992 15.2842
v  -10.6920 11.7338 10.2096
v  -7.8125 2.3235 47.3262
v  -11.0373 7.5809 49.2123
v  -15.6605 19.8341 13.1156
v  15.6605 19.8341 13.1156
v  11.0373 7.5809 49.2123
v  7.8125 2.3235 47.3262
v  10.6920 11.7338 10.2096
v  -4.9685 37.2654 19.3691
v  -3.2248 20.3177 53.7817
v  3.2248 20.3177 53.7817
v  4.9685 37.2654 19.3691
v  3.5609 19.9877 -20.1765
v  37.1818 7.9663 -34.3047
v  37.1818 2.6831 -30.6054
v  3.5609 11.8477 -14.4768
v  19.2214 37.3793 -5.3173
v  48.2191 20.6773 -24.1499
v  44.9943 20.7031 -29.7354
v  14.2529 37.4190 -13.9230
v  14.2529 11.7623 4.0420
v  44.9943 2.6207 -17.0739
v  48.2191 7.8781 -15.1878
v  19.2214 19.8626 6.9480
v  -19.2214 19.8626 6.9480
v  -48.2191 7.8781 -15.1878
v  -44.9943 2.6207 -17.0739
v  -14.2529 11.7623 4.0420
v  -14.2529 37.4190 -13.9230
v  -44.9943 20.7031 -29.7354
v  -48.2191 20.6773 -24.1499
v  -19.2214 37.3793 -5.3173
v  -3.5609 11.8477 -14.4768
v  -37.1818 2.6831 -30.6054
v  -37.1818 7.9663 -34.3047
v  -3.5609 19.9877 -20.1765
v  17.8627 39.1522 6.0228
v  11.0575 81.0371 3.0201
v  7.9325 81.0121 8.4327
v  14.1028 39.1222 12.5351
v  -3.7599 39.2649 -18.4038
v  -3.1250 81.1005 -10.7192
v  3.1250 81.1005 -10.7192
v  3.7599 39.2649 -18.4038
v  -14.1028 39.1222 12.5351
v  -7.9325 81.0121 8.4327
v  -11.0575 81.0371 3.0201
v  -17.8627 39.1522 6.0228
v  -17.8627 29.9124 12.4926
v  -11.0575 12.7654 50.8245
v  -7.9325 17.8601 52.6522
v  -14.1028 36.0422 14.6917
v  3.7599 6.9204 4.2441
v  3.1250 -0.1671 46.1849
v  -3.1250 -0.1671 46.1849
v  -3.7599 6.9204 4.2441
v  14.1028 36.0422 14.6917
v  7.9325 17.8601 52.6522
v  11.0575 12.7654 50.8245
v  17.8627 29.9124 12.4926
v  1.8800 6.9655 -5.5243
v  38.5472 0.1660 -25.9926
v  41.6722 0.1410 -20.5800
v  5.6399 6.9354 0.9880
v  5.6399 36.2000 -19.5033
v  41.6722 18.2566 -33.2646
v  38.5472 13.1618 -35.0924
v  1.8800 30.0702 -21.7024
v  19.7427 29.9274 9.2364
v  49.6047 13.0735 -15.9405
v  49.6047 18.1932 -19.5253
v  19.7427 36.0873 4.9232
v  -5.6399 6.9354 0.9880
v  -41.6722 0.1410 -20.5800
v  -38.5472 0.1660 -25.9926
v  -1.8800 6.9655 -5.5243
v  -19.7427 36.0873 4.9232
v  -49.6047 18.1932 -19.5253
v  -49.6047 13.0735 -15.9405
v  -19.7427 29.9274 9.2364
v  -1.8800 30.0702 -21.7024
v  -38.5472 13.1618 -35.0924
v  -41.6722 18.2566 -33.2646
v  -5.6399 36.2000 -19.5033
v  5.7153 84.0361 -5.3253
v  7.6932 84.0203 -1.8995
v  -7.6932 84.0203 -1.8995
v  -5.7153 84.0361 -5.3253
v  -5.7153 3.8974 50.7883
v  -7.6932 7.1221 51.9452
v  7.6932 7.1221 51.9452
v  5.7153 3.8974 50.7883
v  41.2224 7.5130 -32.7782
v  41.2224 4.2726 -30.5093
v  48.9156 16.8149 -26.0096
v  46.9377 16.8308 -29.4355
v  -48.9156 7.4516 -19.4533
v  -46.9377 4.2269 -20.6102
v  -46.9377 16.8308 -29.4355
v  -48.9156 16.8149 -26.0096
v  7.6932 84.0020 2.0601
v  5.4071 83.9837 6.0198
v  -5.4071 83.9837 6.0198
v  -7.6932 84.0020 2.0601
v  -7.6932 10.8492 53.2823
v  -5.4071 14.5762 54.6194
v  5.4071 14.5762 54.6194
v  7.6932 10.8492 53.2823
v  44.6516 14.9763 -32.0839
v  42.3654 11.2493 -33.4209
v  50.0587 11.1878 -20.0960
v  50.0587 14.9331 -22.7186
v  -44.6516 2.3725 -23.2585
v  -42.3654 2.3908 -27.2182
v  -42.3654 11.2493 -33.4209
v  -44.6516 14.9763 -32.0838
v  -17.2361 35.0406 9.9836
v  0.0000 6.9404 -0.0974
v  17.2361 35.0406 9.9836
v  0.0000 35.1784 -19.8698
# 148 vertices

vn 0.0955 0.9233 -0.3719
vn -0.0955 0.9233 -0.3719
vn -0.0923 0.9221 0.3757
vn 0.0923 0.9221 0.3757
vn -0.0955 -0.6653 0.7404
vn 0.0955 -0.6653 0.7404
vn 0.0923 0.0376 0.9950
vn -0.0923 0.0376 0.9950
vn 0.6916 -0.6605 -0.2921
vn 0.5961 -0.6598 -0.4575
vn 0.9077 -0.4073 -0.1013
vn 0.8154 -0.5577 -0.1552
vn -0.9697 -0.2072 -0.1295
vn -0.9697 -0.0508 -0.2390
vn -0.5399 -0.4043 -0.7383
vn -0.5399 -0.5555 -0.6324
vn 0.6862 0.3418 -0.6420
vn 0.6226 0.4636 -0.6305
vn 0.8591 0.4617 -0.2208
vn 0.9005 0.3401 -0.2709
vn -0.9005 0.3401 -0.2709
vn -0.8591 0.4617 -0.2208
vn -0.6226 0.4636 -0.6305
vn -0.6862 0.3418 -0.6420
vn 0.2143 0.3346 0.9177
vn 0.2365 0.4567 0.8576
vn -0.2365 0.4567 0.8576
vn -0.2143 0.3346 0.9177
vn -0.6862 -0.7202 0.1016
vn -0.6226 -0.7510 0.2200
vn -0.8591 -0.3654 0.3583
vn -0.9005 -0.3709 0.2269
vn 0.9005 -0.3709 0.2269
vn 0.8591 -0.3654 0.3583
vn 0.6226 -0.7510 0.2200
vn 0.6862 -0.7202 0.1016
vn -0.2143 0.7479 0.6283
vn -0.2365 0.6497 0.7225
vn 0.2365 0.6497 0.7225
vn 0.2143 0.7479 0.6283
vn -0.2523 -0.3657 -0.8959
vn -0.1178 -0.3594 -0.9257
vn -0.1178 -0.7469 -0.6544
vn -0.2523 -0.7168 -0.6501
vn 0.6483 0.7514 -0.1234
vn 0.7413 0.6537 -0.1519
vn 0.5048 0.6556 -0.5615
vn 0.4340 0.7531 -0.4945
vn 0.4340 -0.7223 0.5385
vn 0.5048 -0.7519 0.4240
vn 0.7413 -0.3663 0.5624
vn 0.6483 -0.3729 0.6638
vn -0.6483 -0.3729 0.6638
vn -0.7413 -0.3663 0.5624
vn -0.5048 -0.7519 0.4240
vn -0.4340 -0.7223 0.5385
vn -0.4340 0.7531 -0.4945
vn -0.5048 0.6556 -0.5615
vn -0.7413 0.6537 -0.1519
vn -0.6483 0.7514 -0.1234
vn 0.2523 -0.7168 -0.6501
vn 0.1178 -0.7469 -0.6544
vn 0.1178 -0.3594 -0.9257
vn 0.2523 -0.3657 -0.8959
vn 0.9069 0.3289 0.2634
vn 0.8567 0.4625 0.2285
vn 0.6243 0.4607 0.6309
vn 0.6802 0.3271 0.6560
vn -0.2266 0.3343 -0.9148
vn -0.2323 0.4675 -0.8529
vn 0.2323 0.4675 -0.8529
vn 0.2266 0.3343 -0.9148
vn -0.6802 0.3271 0.6560
vn -0.6243 0.4607 0.6309
vn -0.8567 0.4625 0.2285
vn -0.9069 0.3289 0.2634
vn -0.9069 0.1350 0.3992
vn -0.8567 0.0565 0.5128
vn -0.6243 0.4353 0.6487
vn -0.6802 0.5045 0.5317
vn 0.2266 -0.9740 0.0013
vn 0.2323 -0.9614 0.1476
vn -0.2323 -0.9614 0.1476
vn -0.2266 -0.9740 0.0013
vn 0.6802 0.5045 0.5317
vn 0.6243 0.4353 0.6487
vn 0.8567 0.0565 0.5128
vn 0.9069 0.1350 0.3992
vn -0.1083 -0.9730 -0.2037
vn 0.0155 -0.9594 -0.2817
vn 0.2479 -0.9612 0.1207
vn 0.1183 -0.9748 0.1889
vn 0.1183 0.5109 -0.8514
vn 0.2479 0.4422 -0.8620
vn 0.0155 0.0634 -0.9979
vn -0.1083 0.1414 -0.9840
vn 0.7986 0.1342 0.5867
vn 0.8722 0.0566 0.4859
vn 0.8722 0.4372 0.2194
vn 0.7986 0.5055 0.3268
vn -0.1183 -0.9748 0.1889
vn -0.2479 -0.9612 0.1207
vn -0.0155 -0.9594 -0.2817
vn 0.1083 -0.9730 -0.2037
vn -0.7986 0.5055 0.3268
vn -0.8722 0.4372 0.2194
vn -0.8722 0.0566 0.4859
vn -0.7986 0.1342 0.5867
vn 0.1083 0.1414 -0.9840
vn -0.0155 0.0634 -0.9979
vn -0.2479 0.4422 -0.8620
vn -0.1183 0.5109 -0.8514
vn 0.2755 0.9251 -0.2613
vn 0.3678 0.9243 -0.1015
vn -0.3678 0.9243 -0.1015
vn -0.2755 0.9251 -0.2613
vn -0.2755 -0.5620 0.7799
vn -0.3678 -0.4116 0.8339
vn 0.3678 -0.4116 0.8339
vn 0.2755 -0.5620 0.7799
vn 0.5399 -0.4043 -0.7383
vn 0.5399 -0.5555 -0.6324
vn 0.9077 0.0441 -0.4173
vn 0.8154 0.0449 -0.5771
vn -0.9077 -0.4073 -0.1013
vn -0.8154 -0.5577 -0.1552
vn -0.8154 0.0449 -0.5771
vn -0.9077 0.0441 -0.4173
vn 0.3735 0.9211 0.1096
vn 0.2780 0.9203 0.2751
vn -0.2780 0.9203 0.2751
vn -0.3735 0.9211 0.1096
vn -0.3735 -0.2120 0.9031
vn -0.2780 -0.0563 0.9589
vn 0.2780 -0.0563 0.9589
vn 0.3735 -0.2120 0.9031
vn 0.6916 -0.0486 -0.7206
vn 0.5961 -0.2043 -0.7765
vn 0.9697 -0.2072 -0.1295
vn 0.9697 -0.0508 -0.2390
vn -0.6916 -0.6605 -0.2921
vn -0.5961 -0.6598 -0.4575
vn -0.5961 -0.2043 -0.7765
vn -0.6916 -0.0486 -0.7206
vn -0.8165 0.3312 0.4729
vn -0.0000 -1.0000 -0.0046
vn 0.8165 0.3312 0.4729
vn -0.0000 0.3377 -0.9413
# 148 vertex normals

vt 0.7399 0.1362 0.0000
vt 0.7148 0.1362 0.0000
vt 0.7165 0.0487 0.0000
vt 0.7381 0.0487 0.0000
vt 0.6575 0.2924 0.0000
vt 0.6826 0.2924 0.0000
vt 0.6808 0.3800 0.0000
vt 0.6593 0.3800 0.0000
vt 0.5789 0.8673 0.0000
vt 0.6047 0.8668 0.0000
vt 0.5476 0.8975 0.0000
vt 0.5594 0.8785 0.0000
vt 0.9540 0.2267 0.0000
vt 0.9416 0.2486 0.0000
vt 0.8665 0.2037 0.0000
vt 0.8772 0.1849 0.0000
vt 0.8895 0.5748 0.0000
vt 0.9527 0.3621 0.0000
vt 0.9880 0.3690 0.0000
vt 0.9460 0.5810 0.0000
vt 0.1146 0.7396 0.0000
vt 0.0560 0.9536 0.0000
vt 0.0205 0.9475 0.0000
vt 0.0581 0.7347 0.0000
vt 0.3280 0.3527 0.0000
vt 0.4565 0.5337 0.0000
vt 0.4293 0.5573 0.0000
vt 0.2885 0.3934 0.0000
vt 0.3287 0.6173 0.0000
vt 0.4956 0.7637 0.0000
vt 0.4731 0.7873 0.0000
vt 0.2889 0.6612 0.0000
vt 0.3324 0.1749 0.0000
vt 0.1096 0.1682 0.0000
vt 0.1048 0.1357 0.0000
vt 0.3260 0.1165 0.0000
vt 0.2647 0.3739 0.0000
vt 0.0709 0.2801 0.0000
vt 0.0872 0.2481 0.0000
vt 0.2947 0.3254 0.0000
vt 0.7469 0.6812 0.0000
vt 0.8792 0.8607 0.0000
vt 0.8566 0.8846 0.0000
vt 0.7049 0.7224 0.0000
vt 0.9451 0.6118 0.0000
vt 0.9911 0.8220 0.0000
vt 0.9559 0.8289 0.0000
vt 0.8885 0.6179 0.0000
vt 0.3692 0.1097 0.0000
vt 0.5883 0.0735 0.0000
vt 0.5922 0.1060 0.0000
vt 0.3780 0.1683 0.0000
vt 0.2550 0.6302 0.0000
vt 0.1189 0.4536 0.0000
vt 0.1410 0.4293 0.0000
vt 0.2961 0.5882 0.0000
vt 0.0583 0.7038 0.0000
vt 0.0079 0.4947 0.0000
vt 0.0429 0.4870 0.0000
vt 0.1148 0.6966 0.0000
vt 0.6729 0.6926 0.0000
vt 0.5091 0.5428 0.0000
vt 0.5322 0.5196 0.0000
vt 0.7136 0.6495 0.0000
vt 0.3935 0.2854 0.0000
vt 0.5096 0.5024 0.0000
vt 0.4786 0.5158 0.0000
vt 0.3566 0.3011 0.0000
vt 0.7961 0.5649 0.0000
vt 0.8952 0.3397 0.0000
vt 0.9249 0.3559 0.0000
vt 0.8312 0.5844 0.0000
vt 0.2082 0.7475 0.0000
vt 0.1140 0.9749 0.0000
vt 0.0839 0.9593 0.0000
vt 0.1727 0.7289 0.0000
vt 0.2393 0.6969 0.0000
vt 0.4597 0.8093 0.0000
vt 0.4513 0.8413 0.0000
vt 0.2303 0.7367 0.0000
vt 0.3922 0.5358 0.0000
vt 0.5464 0.7234 0.0000
vt 0.5179 0.7450 0.0000
vt 0.3575 0.5639 0.0000
vt 0.3387 0.2819 0.0000
vt 0.1009 0.2238 0.0000
vt 0.1094 0.1938 0.0000
vt 0.3510 0.2347 0.0000
vt 0.3466 0.0090 0.0000
vt 0.5894 0.0088 0.0000
vt 0.5880 0.0444 0.0000
vt 0.3462 0.0536 0.0000
vt 0.8272 0.6102 0.0000
vt 0.9283 0.8332 0.0000
vt 0.8995 0.8450 0.0000
vt 0.7825 0.6297 0.0000
vt 0.3740 0.2293 0.0000
vt 0.6007 0.1302 0.0000
vt 0.6201 0.1570 0.0000
vt 0.3991 0.2615 0.0000
vt 0.6077 0.7727 0.0000
vt 0.4575 0.5819 0.0000
vt 0.4864 0.5610 0.0000
vt 0.6430 0.7453 0.0000
vt 0.1762 0.7029 0.0000
vt 0.0704 0.4821 0.0000
vt 0.0989 0.4697 0.0000
vt 0.2205 0.6825 0.0000
vt 0.7640 0.6149 0.0000
vt 0.5460 0.4979 0.0000
vt 0.5551 0.4661 0.0000
vt 0.7739 0.5753 0.0000
vt 0.2491 0.7904 0.0000
vt 0.4450 0.8713 0.0000
vt 0.4526 0.2810 0.0000
vt 0.6394 0.1809 0.0000
vt 0.7561 0.5212 0.0000
vt 0.5620 0.4362 0.0000
vt 0.4473 0.3011 0.0000
vt 0.5389 0.4934 0.0000
vt 0.7752 0.5129 0.0000
vt 0.8700 0.3223 0.0000
vt 0.2302 0.7991 0.0000
vt 0.1395 0.9917 0.0000
vt 0.0997 0.1066 0.0000
vt 0.3322 0.0595 0.0000
vt 0.8369 0.9065 0.0000
vt 0.6564 0.7527 0.0000
vt 0.1603 0.4069 0.0000
vt 0.3440 0.5569 0.0000
vt 0.7585 0.1248 0.0000
vt 0.7691 0.1052 0.0000
vt 0.7935 0.1091 0.0000
vt 0.7747 0.1434 0.0000
vt 0.6856 0.1052 0.0000
vt 0.6962 0.1248 0.0000
vt 0.6800 0.1434 0.0000
vt 0.6612 0.1091 0.0000
vt 0.7077 0.0256 0.0000
vt 0.7470 0.0256 0.0000
vt 0.6389 0.3038 0.0000
vt 0.6282 0.3235 0.0000
vt 0.6038 0.3196 0.0000
vt 0.6226 0.2852 0.0000
vt 0.7119 0.3235 0.0000
vt 0.7012 0.3038 0.0000
vt 0.7175 0.2852 0.0000
vt 0.7363 0.3196 0.0000
vt 0.6897 0.4030 0.0000
vt 0.6504 0.4030 0.0000
vt 0.6345 0.8962 0.0000
vt 0.6238 0.8774 0.0000
vt 0.6395 0.8583 0.0000
vt 0.6589 0.8925 0.0000
vt 0.5785 0.9517 0.0000
vt 0.6008 0.9514 0.0000
vt 0.6092 0.9747 0.0000
vt 0.5700 0.9748 0.0000
vt 0.5234 0.8925 0.0000
vt 0.5439 0.8592 0.0000
vt 0.9533 0.2049 0.0000
vt 0.9416 0.1860 0.0000
vt 0.9571 0.1667 0.0000
vt 0.9775 0.2000 0.0000
vt 0.9001 0.2589 0.0000
vt 0.9225 0.2592 0.0000
vt 0.9309 0.2823 0.0000
vt 0.8917 0.2821 0.0000
vt 0.8421 0.2000 0.0000
vt 0.8615 0.1658 0.0000
vt 0.7691 0.0827 0.0000
vt 0.7567 0.0600 0.0000
vt 0.7760 0.0424 0.0000
vt 0.7944 0.0758 0.0000
vt 0.7465 0.1614 0.0000
vt 0.7082 0.1614 0.0000
vt 0.6979 0.0600 0.0000
vt 0.6855 0.0827 0.0000
vt 0.6603 0.0758 0.0000
vt 0.6787 0.0424 0.0000
vt 0.6283 0.3459 0.0000
vt 0.6407 0.3686 0.0000
vt 0.6215 0.3863 0.0000
vt 0.6031 0.3529 0.0000
vt 0.6509 0.2672 0.0000
vt 0.6892 0.2672 0.0000
vt 0.6994 0.3686 0.0000
vt 0.7118 0.3459 0.0000
vt 0.7370 0.3529 0.0000
vt 0.7186 0.3863 0.0000
vt 0.5724 0.8420 0.0000
vt 0.6106 0.8414 0.0000
vt 0.6203 0.9402 0.0000
vt 0.6338 0.9181 0.0000
vt 0.6587 0.9260 0.0000
vt 0.6387 0.9586 0.0000
vt 0.5469 0.9193 0.0000
vt 0.5594 0.9411 0.0000
vt 0.5406 0.9591 0.0000
vt 0.5217 0.9260 0.0000
vt 0.9220 0.1748 0.0000
vt 0.8962 0.1743 0.0000
vt 0.8904 0.1489 0.0000
vt 0.9285 0.1495 0.0000
vt 0.9792 0.2334 0.0000
vt 0.9603 0.2666 0.0000
vt 0.8671 0.2256 0.0000
vt 0.8807 0.2476 0.0000
vt 0.8622 0.2661 0.0000
vt 0.8423 0.2335 0.0000
vt 0.2075 0.7151 0.0000
vt 0.3612 0.5309 0.0000
vt 0.6386 0.7783 0.0000
vt 0.3231 0.0297 0.0000
vt 0.3680 0.2654 0.0000
vt 0.7961 0.5973 0.0000
# 216 texture coords

g Hedra
s 1
f 1/1/1 2/2/2 3/3/3 4/4/4 
f 5/5/5 6/6/6 7/7/7 8/8/8 
f 9/9/9 10/10/10 11/11/11 12/12/12 
f 13/13/13 14/14/14 15/15/15 16/16/16 
f 17/17/17 18/18/18 19/19/19 20/20/20 
f 21/21/21 22/22/22 23/23/23 24/24/24 
f 25/25/25 26/26/26 27/27/27 28/28/28 
f 29/29/29 30/30/30 31/31/31 32/32/32 
f 33/33/33 34/34/34 35/35/35 36/36/36 
f 37/37/37 38/38/38 39/39/39 40/40/40 
f 41/41/41 42/42/42 43/43/43 44/44/44 
f 45/45/45 46/46/46 47/47/47 48/48/48 
f 49/49/49 50/50/50 51/51/51 52/52/52 
f 53/53/53 54/54/54 55/55/55 56/56/56 
f 57/57/57 58/58/58 59/59/59 60/60/60 
f 61/61/61 62/62/62 63/63/63 64/64/64 
f 65/65/65 66/66/66 67/67/67 68/68/68 
f 69/69/69 70/70/70 71/71/71 72/72/72 
f 73/73/73 74/74/74 75/75/75 76/76/76 
f 77/77/77 78/78/78 79/79/79 80/80/80 
f 81/81/81 82/82/82 83/83/83 84/84/84 
f 85/85/85 86/86/86 87/87/87 88/88/88 
f 89/89/89 90/90/90 91/91/91 92/92/92 
f 93/93/93 94/94/94 95/95/95 96/96/96 
f 97/97/97 98/98/98 99/99/99 100/100/100 
f 101/101/101 102/102/102 103/103/103 104/104/104 
f 105/105/105 106/106/106 107/107/107 108/108/108 
f 109/109/109 110/110/110 111/111/111 112/112/112 
f 40/40/40 85/85/85 68/68/68 25/25/25 
f 25/25/25 68/68/68 67/67/67 26/26/26 
f 17/17/17 72/72/72 71/71/71 18/18/18 
f 21/21/21 76/76/76 75/75/75 22/22/22 
f 37/113/37 80/80/80 79/79/79 38/114/38 
f 29/29/29 84/84/84 83/83/83 30/30/30 
f 33/33/33 88/88/88 87/87/87 34/34/34 
f 49/49/49 92/92/92 91/91/91 50/50/50 
f 41/41/41 96/96/96 95/95/95 42/42/42 
f 45/115/45 100/100/100 99/99/99 46/116/46 
f 61/61/61 104/104/104 103/103/103 62/62/62 
f 53/53/53 108/108/108 107/107/107 54/54/54 
f 57/117/57 112/112/112 111/111/111 58/118/58 
f 20/119/20 19/120/19 66/66/66 65/65/65 
f 24/121/24 23/122/23 70/70/70 69/69/69 
f 28/123/28 27/124/27 74/74/74 73/73/73 
f 32/32/32 31/31/31 78/78/78 77/77/77 
f 36/36/36 35/35/35 82/125/82 81/126/81 
f 40/40/40 39/39/39 86/86/86 85/85/85 
f 44/44/44 43/43/43 90/127/90 89/128/89 
f 48/48/48 47/47/47 94/94/94 93/93/93 
f 52/52/52 51/51/51 98/98/98 97/97/97 
f 56/56/56 55/55/55 102/129/102 101/130/101 
f 60/60/60 59/59/59 106/106/106 105/105/105 
f 64/64/64 63/63/63 110/110/110 109/109/109 
f 73/73/73 80/80/80 37/113/37 28/123/28 
f 72/72/72 17/17/17 48/48/48 93/93/93 
f 92/92/92 49/49/49 36/36/36 81/126/81 
f 97/97/97 88/88/88 33/33/33 52/52/52 
f 65/65/65 100/100/100 45/115/45 20/119/20 
f 105/105/105 76/76/76 21/21/21 60/60/60 
f 77/77/77 108/108/108 53/53/53 32/32/32 
f 109/109/109 96/96/96 41/41/41 64/64/64 
f 69/69/69 112/112/112 57/117/57 24/121/24 
f 101/130/101 84/84/84 29/29/29 56/56/56 
f 89/128/89 104/104/104 61/61/61 44/44/44 
f 45/45/45 48/48/48 17/17/17 20/20/20 
f 57/57/57 60/60/60 21/21/21 24/24/24 
f 37/37/37 40/40/40 25/25/25 28/28/28 
f 53/53/53 56/56/56 29/29/29 32/32/32 
f 49/49/49 52/52/52 33/33/33 36/36/36 
f 61/61/61 64/64/64 41/41/41 44/44/44 
f 113/131/113 114/132/114 19/133/19 18/134/18 
f 115/135/115 116/136/116 23/137/23 22/138/22 
f 4/4/4 3/3/3 27/139/27 26/140/26 
f 117/141/117 118/142/118 31/143/31 30/144/30 
f 119/145/119 120/146/120 35/147/35 34/148/34 
f 8/8/8 7/7/7 39/149/39 38/150/38 
f 121/151/121 122/152/122 43/153/43 42/154/42 
f 123/155/123 124/156/124 47/157/47 46/158/46 
f 12/12/12 11/11/11 51/159/51 50/160/50 
f 125/161/125 126/162/126 55/163/55 54/164/54 
f 127/165/127 128/166/128 59/167/59 58/168/58 
f 16/16/16 15/15/15 63/169/63 62/170/62 
f 129/171/129 130/172/130 67/173/67 66/174/66 
f 2/2/2 1/1/1 71/175/71 70/176/70 
f 131/177/131 132/178/132 75/179/75 74/180/74 
f 133/181/133 134/182/134 79/183/79 78/184/78 
f 6/6/6 5/5/5 83/185/83 82/186/82 
f 135/187/135 136/188/136 87/189/87 86/190/86 
f 10/10/10 9/9/9 91/191/91 90/192/90 
f 137/193/137 138/194/138 95/195/95 94/196/94 
f 139/197/139 140/198/140 99/199/99 98/200/98 
f 141/201/141 142/202/142 103/203/103 102/204/102 
f 14/14/14 13/13/13 107/205/107 106/206/106 
f 143/207/143 144/208/144 111/209/111 110/210/110 
f 130/172/130 4/4/4 26/140/26 67/173/67 
f 1/1/1 113/131/113 18/134/18 71/175/71 
f 132/178/132 115/135/115 22/138/22 75/179/75 
f 134/182/134 8/8/8 38/150/38 79/183/79 
f 5/5/5 117/141/117 30/144/30 83/185/83 
f 136/188/136 119/145/119 34/148/34 87/189/87 
f 9/9/9 12/12/12 50/160/50 91/191/91 
f 138/194/138 121/151/121 42/154/42 95/195/95 
f 140/198/140 123/155/123 46/158/46 99/199/99 
f 142/202/142 16/16/16 62/170/62 103/203/103 
f 13/13/13 125/161/125 54/164/54 107/205/107 
f 144/208/144 127/165/127 58/168/58 111/209/111 
f 19/133/19 114/132/114 129/171/129 66/174/66 
f 23/137/23 116/136/116 2/2/2 70/176/70 
f 27/139/27 3/3/3 131/177/131 74/180/74 
f 31/143/31 118/142/118 133/181/133 78/184/78 
f 35/147/35 120/146/120 6/6/6 82/186/82 
f 39/149/39 7/7/7 135/187/135 86/190/86 
f 43/153/43 122/152/122 10/10/10 90/192/90 
f 47/157/47 124/156/124 137/193/137 94/196/94 
f 51/159/51 11/11/11 139/197/139 98/200/98 
f 55/163/55 126/162/126 141/201/141 102/204/102 
f 59/167/59 128/166/128 14/14/14 106/206/106 
f 63/169/63 15/15/15 143/207/143 110/210/110 
f 6/6/6 120/146/120 135/187/135 7/7/7 
f 134/182/134 117/141/117 5/5/5 8/8/8 
f 120/146/120 119/145/119 136/188/136 135/187/135 
f 133/181/133 118/142/118 117/141/117 134/182/134 
f 130/172/130 113/131/113 1/1/1 4/4/4 
f 2/2/2 116/136/116 131/177/131 3/3/3 
f 129/171/129 114/132/114 113/131/113 130/172/130 
f 116/136/116 115/135/115 132/178/132 131/177/131 
f 121/151/121 140/198/140 139/197/139 122/152/122 
f 138/194/138 123/155/123 140/198/140 121/151/121 
f 10/10/10 122/152/122 139/197/139 11/11/11 
f 137/193/137 124/156/124 123/155/123 138/194/138 
f 142/202/142 125/161/125 13/13/13 16/16/16 
f 14/14/14 128/166/128 143/207/143 15/15/15 
f 141/201/141 126/162/126 125/161/125 142/202/142 
f 128/166/128 127/165/127 144/208/144 143/207/143 
f 76/76/76 105/105/105 145/211/145 73/73/73 
f 108/108/108 77/77/77 145/211/145 105/105/105 
f 80/80/80 73/73/73 145/211/145 77/77/77 
f 84/84/84 101/130/101 146/212/146 81/81/81 
f 104/104/104 89/128/89 146/213/146 101/101/101 
f 92/92/92 81/126/81 146/214/146 89/89/89 
f 88/88/88 97/97/97 147/215/147 85/85/85 
f 100/100/100 65/65/65 147/215/147 97/97/97 
f 68/68/68 85/85/85 147/215/147 65/65/65 
f 96/96/96 109/109/109 148/216/148 93/93/93 
f 112/112/112 69/69/69 148/216/148 109/109/109 
f 72/72/72 93/93/93 148/216/148 69/69/69 
# 146 polygons

