# 3ds Max Wavefront OBJ Exporter v0.97b - (c)2007 guruware
# File Created: 02.07.2012 21:39:42

#
# object cylinder001
#

v  29.3654 62.2836 -10.9879
v  31.2500 62.2836 -0.2998
v  31.2500 -0.2164 -0.2998
v  29.3654 -0.2164 -10.9879
v  23.9389 62.2836 -20.3869
v  23.9389 -0.2164 -20.3869
v  15.6250 62.2836 -27.3631
v  15.6250 -0.2164 -27.3631
v  5.4265 62.2836 -31.0751
v  5.4265 -0.2164 -31.0751
v  -5.4265 62.2836 -31.0751
v  -5.4265 -0.2164 -31.0751
v  -15.6250 62.2836 -27.3631
v  -15.6250 -0.2164 -27.3631
v  -23.9389 62.2836 -20.3869
v  -23.9389 -0.2164 -20.3869
v  -29.3654 62.2836 -10.9879
v  -29.3654 -0.2164 -10.9879
v  -31.2500 62.2836 -0.2998
v  -31.2500 -0.2164 -0.2998
v  -29.3654 62.2836 10.3883
v  -29.3654 -0.2164 10.3883
v  -23.9389 62.2836 19.7873
v  -23.9389 -0.2164 19.7873
v  -15.6250 62.2836 26.7635
v  -15.6250 -0.2164 26.7635
v  -5.4265 62.2836 30.4754
v  -5.4265 -0.2164 30.4754
v  5.4265 62.2836 30.4754
v  5.4265 -0.2164 30.4754
v  15.6250 62.2836 26.7635
v  15.6250 -0.2164 26.7635
v  23.9389 62.2836 19.7873
v  23.9389 -0.2164 19.7873
v  29.3654 62.2836 10.3883
v  29.3654 -0.2164 10.3883
v  -10.0000 61.8143 -4.3589
v  -10.0000 66.9057 -4.3405
v  -9.0000 66.8138 -3.3447
v  -9.0000 61.8143 -3.3589
v  -11.0000 61.8143 -3.3589
v  -11.0000 66.8138 -3.3447
v  -10.0000 61.8143 -2.3589
v  -10.0000 66.7220 -2.3490
v  -10.0000 68.9238 -3.6265
v  -9.0000 68.3690 -2.7945
v  -11.0000 68.3690 -2.7945
v  -10.0000 67.8142 -1.9626
v  -10.0000 70.3587 -2.0378
v  -9.0000 69.4747 -1.5703
v  -11.0000 69.4747 -1.5703
v  -10.0000 68.5907 -1.1028
v  -10.0000 70.8641 0.0424
v  -9.0000 69.8642 0.0327
v  -11.0000 69.8642 0.0327
v  -10.0000 68.8642 0.0229
v  -10.0000 70.3183 2.1124
v  -9.0000 69.4436 1.6278
v  -11.0000 69.4436 1.6278
v  -10.0000 68.5688 1.1432
v  -10.0000 68.8528 3.6729
v  -9.0000 68.3143 2.8303
v  -11.0000 68.3143 2.8303
v  -10.0000 67.7758 1.9876
v  -10.0000 66.8212 4.3475
v  -9.0000 66.7487 3.3501
v  -11.0000 66.7487 3.3501
v  -10.0000 66.6763 2.3527
v  -10.0000 61.7489 4.3589
v  -9.0000 61.7489 3.3589
v  -11.0000 61.7489 3.3589
v  -10.0000 61.7489 2.3589
v  10.0000 61.8143 -4.3589
v  10.0000 66.9057 -4.3405
v  11.0000 66.8138 -3.3447
v  11.0000 61.8143 -3.3589
v  9.0000 61.8143 -3.3589
v  9.0000 66.8138 -3.3447
v  10.0000 61.8143 -2.3589
v  10.0000 66.7220 -2.3490
v  10.0000 68.9238 -3.6265
v  11.0000 68.3690 -2.7945
v  9.0000 68.3690 -2.7945
v  10.0000 67.8142 -1.9626
v  10.0000 70.3587 -2.0378
v  11.0000 69.4747 -1.5703
v  9.0000 69.4747 -1.5703
v  10.0000 68.5907 -1.1028
v  10.0000 70.8641 0.0424
v  11.0000 69.8642 0.0327
v  9.0000 69.8642 0.0327
v  10.0000 68.8642 0.0229
v  10.0000 70.3183 2.1124
v  11.0000 69.4436 1.6278
v  9.0000 69.4436 1.6278
v  10.0000 68.5688 1.1432
v  10.0000 68.8528 3.6729
v  11.0000 68.3143 2.8303
v  9.0000 68.3143 2.8303
v  10.0000 67.7758 1.9876
v  10.0000 66.8212 4.3475
v  11.0000 66.7487 3.3501
v  9.0000 66.7487 3.3501
v  10.0000 66.6763 2.3527
v  10.0000 61.7489 4.3589
v  11.0000 61.7489 3.3589
v  9.0000 61.7489 3.3589
v  10.0000 61.7489 2.3589
# 108 vertices

vn 0.9397 0.0000 -0.3420
vn 1.0000 0.0000 -0.0000
vn 0.7660 0.0000 -0.6428
vn 0.5000 0.0000 -0.8660
vn 0.1736 0.0000 -0.9848
vn -0.1736 0.0000 -0.9848
vn -0.5000 0.0000 -0.8660
vn -0.7660 0.0000 -0.6428
vn -0.9397 0.0000 -0.3420
vn -1.0000 0.0000 -0.0000
vn -0.9397 0.0000 0.3420
vn -0.7660 0.0000 0.6428
vn -0.5000 0.0000 0.8660
vn -0.1736 0.0000 0.9848
vn 0.1736 0.0000 0.9848
vn 0.5000 0.0000 0.8660
vn 0.7660 0.0000 0.6428
vn 0.9397 0.0000 0.3420
vn 0.0000 -1.0000 -0.0000
vn 0.0000 1.0000 -0.0000
vn 0.0002 0.0033 -1.0000
vn 0.0001 0.1655 -0.9862
vn 0.9971 0.0191 -0.0738
vn 1.0000 0.0003 -0.0014
vn -1.0000 0.0003 -0.0011
vn -0.9971 0.0192 -0.0736
vn -0.0002 -0.0024 1.0000
vn -0.0001 -0.1770 0.9842
vn 0.0000 0.5548 -0.8320
vn 0.9939 0.0613 -0.0919
vn -0.9939 0.0613 -0.0919
vn 0.0000 -0.5548 0.8320
vn 0.0000 0.8840 -0.4675
vn 0.9939 0.0976 -0.0516
vn -0.9939 0.0976 -0.0516
vn 0.0000 -0.8840 0.4675
vn 0.0000 1.0000 0.0097
vn 0.9939 0.1104 0.0011
vn -0.9939 0.1104 0.0011
vn 0.0000 -1.0000 -0.0097
vn 0.0000 0.8747 0.4846
vn 0.9939 0.0966 0.0535
vn -0.9939 0.0966 0.0535
vn 0.0000 -0.8747 -0.4846
vn 0.0000 0.5385 0.8426
vn 0.9939 0.0595 0.0930
vn -0.9939 0.0595 0.0930
vn 0.0000 -0.5385 -0.8426
vn -0.0001 0.1550 0.9879
vn 0.9974 0.0180 0.0698
vn -0.9974 0.0180 0.0699
vn 0.0001 -0.1673 -0.9859
vn -0.0001 0.0021 1.0000
vn 1.0000 0.0002 0.0007
vn -1.0000 0.0002 0.0009
vn 0.0001 -0.0015 -1.0000
# 56 vertex normals

vt 0.9840 0.4140 1.0000
vt 0.9840 0.4552 1.0000
vt 0.5003 0.4552 1.0000
vt 0.5003 0.4140 1.0000
vt 0.9840 0.3727 1.0000
vt 0.5003 0.3727 1.0000
vt 0.9840 0.3314 1.0000
vt 0.5003 0.3314 1.0000
vt 0.9840 0.2901 1.0000
vt 0.5003 0.2901 1.0000
vt 0.9840 0.2488 1.0000
vt 0.5003 0.2488 1.0000
vt 0.9840 0.9506 1.0000
vt 0.9840 0.9919 1.0000
vt 0.5003 0.9919 1.0000
vt 0.5003 0.9506 1.0000
vt 0.9840 0.9093 1.0000
vt 0.5003 0.9093 1.0000
vt 0.9840 0.8680 1.0000
vt 0.5003 0.8680 1.0000
vt 0.9840 0.8268 1.0000
vt 0.5003 0.8268 1.0000
vt 0.9840 0.7855 1.0000
vt 0.5003 0.7855 1.0000
vt 0.9840 0.7442 1.0000
vt 0.5003 0.7442 1.0000
vt 0.9840 0.7029 1.0000
vt 0.5003 0.7029 1.0000
vt 0.9840 0.6616 1.0000
vt 0.5003 0.6616 1.0000
vt 0.9840 0.6204 1.0000
vt 0.5003 0.6204 1.0000
vt 0.9840 0.5791 1.0000
vt 0.5003 0.5791 1.0000
vt 0.9840 0.5378 1.0000
vt 0.5003 0.5378 1.0000
vt 0.9840 0.4965 1.0000
vt 0.5003 0.4965 1.0000
vt 0.2045 0.2424 1.0000
vt 0.1255 0.2283 1.0000
vt 0.3674 0.2282 1.0000
vt 0.2885 0.2424 1.0000
vt 0.8720 0.2267 1.0000
vt 0.7930 0.2407 1.0000
vt 0.7090 0.2406 1.0000
vt 0.6302 0.2263 1.0000
vt 0.9366 0.2003 1.0000
vt 0.5661 0.1996 1.0000
vt 0.9788 0.1647 1.0000
vt 0.5244 0.1638 1.0000
vt 0.0191 0.1661 1.0000
vt 0.0045 0.1254 1.0000
vt 0.4881 0.1253 1.0000
vt 0.4736 0.1659 1.0000
vt 0.9937 0.1240 1.0000
vt 0.5101 0.1231 1.0000
vt 0.0190 0.0848 1.0000
vt 0.4735 0.0846 1.0000
vt 0.9795 0.0834 1.0000
vt 0.5250 0.0825 1.0000
vt 0.0609 0.0490 1.0000
vt 0.4314 0.0489 1.0000
vt 0.9378 0.0475 1.0000
vt 0.5673 0.0468 1.0000
vt 0.1252 0.0224 1.0000
vt 0.3671 0.0224 1.0000
vt 0.8736 0.0209 1.0000
vt 0.6318 0.0204 1.0000
vt 0.2041 0.0083 1.0000
vt 0.2881 0.0083 1.0000
vt 0.7948 0.0066 1.0000
vt 0.7108 0.0064 1.0000
vt 0.0612 0.2018 1.0000
vt 0.4317 0.2017 1.0000
vt 0.2628 0.3811 1.0000
vt 0.2628 0.5071 1.0000
vt 0.1900 0.5116 1.0000
vt 0.1828 0.3840 1.0000
vt 0.3428 0.3840 1.0000
vt 0.3355 0.5116 1.0000
vt 0.4183 0.3875 1.0000
vt 0.4080 0.5167 1.0000
vt 0.1176 0.5167 1.0000
vt 0.1072 0.3875 1.0000
vt 0.2628 0.5524 1.0000
vt 0.1921 0.5538 1.0000
vt 0.3335 0.5538 1.0000
vt 0.4057 0.5554 1.0000
vt 0.1199 0.5554 1.0000
vt 0.2628 0.5956 1.0000
vt 0.1916 0.5960 1.0000
vt 0.3340 0.5960 1.0000
vt 0.4060 0.5963 1.0000
vt 0.1196 0.5963 1.0000
vt 0.2628 0.6381 1.0000
vt 0.1912 0.6381 1.0000
vt 0.3343 0.6381 1.0000
vt 0.4064 0.6381 1.0000
vt 0.1192 0.6381 1.0000
vt 0.2628 0.6806 1.0000
vt 0.1916 0.6803 1.0000
vt 0.3340 0.6803 1.0000
vt 0.4060 0.6799 1.0000
vt 0.1195 0.6799 1.0000
vt 0.2628 0.7239 1.0000
vt 0.1920 0.7225 1.0000
vt 0.3335 0.7225 1.0000
vt 0.4057 0.7207 1.0000
vt 0.1199 0.7207 1.0000
vt 0.2628 0.7693 1.0000
vt 0.1898 0.7646 1.0000
vt 0.3357 0.7646 1.0000
vt 0.4082 0.7593 1.0000
vt 0.1173 0.7593 1.0000
vt 0.2628 0.8950 1.0000
vt 0.1829 0.8923 1.0000
vt 0.3427 0.8923 1.0000
vt 0.4181 0.8888 1.0000
vt 0.1075 0.8888 1.0000
vt 0.2626 0.3813 1.0000
vt 0.2626 0.5074 1.0000
vt 0.1898 0.5119 1.0000
vt 0.1825 0.3842 1.0000
vt 0.3426 0.3842 1.0000
vt 0.3353 0.5119 1.0000
vt 0.4181 0.3878 1.0000
vt 0.4077 0.5170 1.0000
vt 0.1174 0.5170 1.0000
vt 0.1070 0.3878 1.0000
vt 0.2626 0.5527 1.0000
vt 0.1918 0.5540 1.0000
vt 0.3333 0.5540 1.0000
vt 0.4055 0.5557 1.0000
vt 0.1196 0.5557 1.0000
vt 0.2626 0.5959 1.0000
vt 0.1914 0.5963 1.0000
vt 0.3337 0.5963 1.0000
vt 0.4058 0.5966 1.0000
vt 0.1193 0.5966 1.0000
vt 0.2626 0.6384 1.0000
vt 0.1910 0.6384 1.0000
vt 0.3341 0.6384 1.0000
vt 0.4062 0.6383 1.0000
vt 0.1189 0.6383 1.0000
vt 0.2626 0.6809 1.0000
vt 0.1913 0.6805 1.0000
vt 0.3338 0.6805 1.0000
vt 0.4058 0.6801 1.0000
vt 0.1193 0.6801 1.0000
vt 0.2626 0.7242 1.0000
vt 0.1918 0.7227 1.0000
vt 0.3333 0.7227 1.0000
vt 0.4055 0.7209 1.0000
vt 0.1196 0.7209 1.0000
vt 0.2626 0.7696 1.0000
vt 0.1896 0.7649 1.0000
vt 0.3355 0.7649 1.0000
vt 0.4080 0.7595 1.0000
vt 0.1171 0.7595 1.0000
vt 0.2625 0.8953 1.0000
vt 0.1827 0.8925 1.0000
vt 0.3424 0.8925 1.0000
vt 0.4179 0.8891 1.0000
vt 0.1072 0.8891 1.0000
# 164 texture coords

g cylinder001
s 1
f 1/1/1 2/2/2 3/3/2 4/4/1 
f 5/5/3 1/1/1 4/4/1 6/6/3 
f 7/7/4 5/5/3 6/6/3 8/8/4 
f 9/9/5 7/7/4 8/8/4 10/10/5 
f 11/11/6 9/9/5 10/10/5 12/12/6 
f 13/13/7 11/14/6 12/15/6 14/16/7 
f 15/17/8 13/13/7 14/16/7 16/18/8 
f 17/19/9 15/17/8 16/18/8 18/20/9 
f 19/21/10 17/19/9 18/20/9 20/22/10 
f 21/23/11 19/21/10 20/22/10 22/24/11 
f 23/25/12 21/23/11 22/24/11 24/26/12 
f 25/27/13 23/25/12 24/26/12 26/28/13 
f 27/29/14 25/27/13 26/28/13 28/30/14 
f 29/31/15 27/29/14 28/30/14 30/32/15 
f 31/33/16 29/31/15 30/32/15 32/34/16 
f 33/35/17 31/33/16 32/34/16 34/36/17 
f 35/37/18 33/35/17 34/36/17 36/38/18 
f 2/2/2 35/37/18 36/38/18 3/3/2 
s 2
f 10/39/19 8/40/19 14/41/19 12/42/19 
f 7/43/20 9/44/20 11/45/20 13/46/20 
f 5/47/20 7/43/20 13/46/20 15/48/20 
f 1/49/20 5/47/20 15/48/20 17/50/20 
f 4/51/19 3/52/19 20/53/19 18/54/19 
f 2/55/20 1/49/20 17/50/20 19/56/20 
f 3/52/19 36/57/19 22/58/19 20/53/19 
f 35/59/20 2/55/20 19/56/20 21/60/20 
f 36/57/19 34/61/19 24/62/19 22/58/19 
f 33/63/20 35/59/20 21/60/20 23/64/20 
f 34/61/19 32/65/19 26/66/19 24/62/19 
f 31/67/20 33/63/20 23/64/20 25/68/20 
f 32/65/19 30/69/19 28/70/19 26/66/19 
f 29/71/20 31/67/20 25/68/20 27/72/20 
f 14/41/19 8/40/19 6/73/19 16/74/19 
s 8
f 37/75/21 38/76/22 39/77/23 40/78/24 
f 37/75/21 41/79/25 42/80/26 38/76/22 
f 41/79/25 43/81/27 44/82/28 42/80/26 
f 40/78/24 39/77/23 44/83/28 43/84/27 
f 45/85/29 46/86/30 39/77/23 38/76/22 
f 47/87/31 45/85/29 38/76/22 42/80/26 
f 48/88/32 47/87/31 42/80/26 44/82/28 
f 46/86/30 48/89/32 44/83/28 39/77/23 
f 49/90/33 50/91/34 46/86/30 45/85/29 
f 51/92/35 49/90/33 45/85/29 47/87/31 
f 52/93/36 51/92/35 47/87/31 48/88/32 
f 50/91/34 52/94/36 48/89/32 46/86/30 
f 53/95/37 54/96/38 50/91/34 49/90/33 
f 55/97/39 53/95/37 49/90/33 51/92/35 
f 56/98/40 55/97/39 51/92/35 52/93/36 
f 54/96/38 56/99/40 52/94/36 50/91/34 
f 57/100/41 58/101/42 54/96/38 53/95/37 
f 59/102/43 57/100/41 53/95/37 55/97/39 
f 60/103/44 59/102/43 55/97/39 56/98/40 
f 58/101/42 60/104/44 56/99/40 54/96/38 
f 61/105/45 62/106/46 58/101/42 57/100/41 
f 63/107/47 61/105/45 57/100/41 59/102/43 
f 64/108/48 63/107/47 59/102/43 60/103/44 
f 62/106/46 64/109/48 60/104/44 58/101/42 
f 65/110/49 66/111/50 62/106/46 61/105/45 
f 67/112/51 65/110/49 61/105/45 63/107/47 
f 68/113/52 67/112/51 63/107/47 64/108/48 
f 66/111/50 68/114/52 64/109/48 62/106/46 
f 66/111/50 65/110/49 69/115/53 70/116/54 
f 67/112/51 71/117/55 69/115/53 65/110/49 
f 68/113/52 72/118/56 71/117/55 67/112/51 
f 68/114/52 66/111/50 70/116/54 72/119/56 
f 73/120/21 74/121/22 75/122/23 76/123/24 
f 73/120/21 77/124/25 78/125/26 74/121/22 
f 77/124/25 79/126/27 80/127/28 78/125/26 
f 76/123/24 75/122/23 80/128/28 79/129/27 
f 81/130/29 82/131/30 75/122/23 74/121/22 
f 83/132/31 81/130/29 74/121/22 78/125/26 
f 84/133/32 83/132/31 78/125/26 80/127/28 
f 82/131/30 84/134/32 80/128/28 75/122/23 
f 85/135/33 86/136/34 82/131/30 81/130/29 
f 87/137/35 85/135/33 81/130/29 83/132/31 
f 88/138/36 87/137/35 83/132/31 84/133/32 
f 86/136/34 88/139/36 84/134/32 82/131/30 
f 89/140/37 90/141/38 86/136/34 85/135/33 
f 91/142/39 89/140/37 85/135/33 87/137/35 
f 92/143/40 91/142/39 87/137/35 88/138/36 
f 90/141/38 92/144/40 88/139/36 86/136/34 
f 93/145/41 94/146/42 90/141/38 89/140/37 
f 95/147/43 93/145/41 89/140/37 91/142/39 
f 96/148/44 95/147/43 91/142/39 92/143/40 
f 94/146/42 96/149/44 92/144/40 90/141/38 
f 97/150/45 98/151/46 94/146/42 93/145/41 
f 99/152/47 97/150/45 93/145/41 95/147/43 
f 100/153/48 99/152/47 95/147/43 96/148/44 
f 98/151/46 100/154/48 96/149/44 94/146/42 
f 101/155/49 102/156/50 98/151/46 97/150/45 
f 103/157/51 101/155/49 97/150/45 99/152/47 
f 104/158/52 103/157/51 99/152/47 100/153/48 
f 102/156/50 104/159/52 100/154/48 98/151/46 
f 102/156/50 101/155/49 105/160/53 106/161/54 
f 103/157/51 107/162/55 105/160/53 101/155/49 
f 104/158/52 108/163/56 107/162/55 103/157/51 
f 104/159/52 102/156/50 106/161/54 108/164/56 
s 2
f 16/74/19 6/73/19 4/51/19 18/54/19 
# 98 polygons

